<svg width="87" height="87" viewBox="0 0 87 87" fill="none" xmlns="http://www.w3.org/2000/svg">
<path fill-rule="evenodd" clip-rule="evenodd" d="M44 27C34.6075 27 27 34.5705 27 43.9173C27 51.4032 31.8662 57.726 38.6237 59.9675C39.4737 60.1156 39.7925 59.6081 39.7925 59.164C39.7925 58.7622 39.7713 57.4299 39.7713 56.0131C35.5 56.7956 34.395 54.9769 34.055 54.0253C33.8637 53.539 33.035 52.0376 32.3125 51.6358C31.7175 51.3186 30.8675 50.5362 32.2912 50.515C33.63 50.4939 34.5862 51.7415 34.905 52.249C36.435 54.8078 38.8787 54.0888 39.8562 53.6447C40.005 52.5451 40.4512 51.805 40.94 51.382C37.1575 50.9591 33.205 49.5 33.205 43.0291C33.205 41.1894 33.8638 39.6668 34.9475 38.4826C34.7775 38.0597 34.1825 36.3256 35.1175 33.9995C35.1175 33.9995 36.5412 33.5554 39.7925 35.7335C41.1525 35.3529 42.5975 35.1626 44.0425 35.1626C45.4875 35.1626 46.9325 35.3529 48.2925 35.7335C51.5437 33.5343 52.9675 33.9995 52.9675 33.9995C53.9025 36.3256 53.3075 38.0597 53.1375 38.4826C54.2213 39.6668 54.88 41.1682 54.88 43.0291C54.88 49.5211 50.9062 50.9591 47.1237 51.382C47.74 51.9107 48.2712 52.9257 48.2712 54.5117C48.2712 56.7744 48.25 58.593 48.25 59.164C48.25 59.6081 48.5687 60.1367 49.4187 59.9675C52.7935 58.8337 55.726 56.6753 57.8035 53.7961C59.881 50.9169 60.999 47.4618 61 43.9173C61 34.5705 53.3925 27 44 27Z" fill="url(#paint0_linear_72_95)"/>
<g filter="url(#filter0_bii_72_95)">
<circle cx="43.5" cy="43.5" r="43.5" fill="#2D303D" fill-opacity="0.2"/>
</g>
<path fill-rule="evenodd" clip-rule="evenodd" d="M43.9173 27C34.5705 27 27 34.5705 27 43.9173C27 51.4033 31.8426 57.7261 38.5672 59.9677C39.4131 60.1157 39.7303 59.6082 39.7303 59.1641C39.7303 58.7623 39.7092 57.4301 39.7092 56.0133C35.4587 56.7957 34.359 54.9771 34.0207 54.0255C33.8304 53.5391 33.0057 52.0377 32.2867 51.6359C31.6946 51.3187 30.8487 50.5363 32.2655 50.5151C33.5978 50.494 34.5494 51.7416 34.8666 52.2491C36.3891 54.8079 38.821 54.0889 39.7937 53.6448C39.9418 52.5452 40.3859 51.8051 40.8722 51.3821C37.1081 50.9592 33.1748 49.5001 33.1748 43.0292C33.1748 41.1894 33.8304 39.6669 34.9089 38.4827C34.7397 38.0597 34.1476 36.3257 35.078 33.9996C35.078 33.9996 36.4949 33.5555 39.7303 35.7336C41.0837 35.3529 42.5217 35.1626 43.9596 35.1626C45.3976 35.1626 46.8356 35.3529 48.189 35.7336C51.4244 33.5343 52.8412 33.9996 52.8412 33.9996C53.7717 36.3257 53.1796 38.0597 53.0104 38.4827C54.0889 39.6669 54.7445 41.1683 54.7445 43.0292C54.7445 49.5212 50.79 50.9592 47.0259 51.3821C47.6392 51.9108 48.1678 52.9258 48.1678 54.5118C48.1678 56.7745 48.1467 58.5931 48.1467 59.1641C48.1467 59.6082 48.4639 60.1369 49.3098 59.9677C52.6681 58.8338 55.5863 56.6754 57.6538 53.7962C59.7212 50.917 60.8337 47.4619 60.8347 43.9173C60.8347 34.5705 53.2642 27 43.9173 27Z" fill="url(#paint1_linear_72_95)"/>
<defs>
<filter id="filter0_bii_72_95" x="-30" y="-30" width="147" height="147" filterUnits="userSpaceOnUse" color-interpolation-filters="sRGB">
<feFlood flood-opacity="0" result="BackgroundImageFix"/>
<feGaussianBlur in="BackgroundImageFix" stdDeviation="15"/>
<feComposite in2="SourceAlpha" operator="in" result="effect1_backgroundBlur_72_95"/>
<feBlend mode="normal" in="SourceGraphic" in2="effect1_backgroundBlur_72_95" result="shape"/>
<feColorMatrix in="SourceAlpha" type="matrix" values="0 0 0 0 0 0 0 0 0 0 0 0 0 0 0 0 0 0 127 0" result="hardAlpha"/>
<feOffset dy="2"/>
<feGaussianBlur stdDeviation="2"/>
<feComposite in2="hardAlpha" operator="arithmetic" k2="-1" k3="1"/>
<feColorMatrix type="matrix" values="0 0 0 0 1 0 0 0 0 1 0 0 0 0 1 0 0 0 0.1 0"/>
<feBlend mode="normal" in2="shape" result="effect2_innerShadow_72_95"/>
<feColorMatrix in="SourceAlpha" type="matrix" values="0 0 0 0 0 0 0 0 0 0 0 0 0 0 0 0 0 0 127 0" result="hardAlpha"/>
<feOffset dy="-5"/>
<feGaussianBlur stdDeviation="6"/>
<feComposite in2="hardAlpha" operator="arithmetic" k2="-1" k3="1"/>
<feColorMatrix type="matrix" values="0 0 0 0 0 0 0 0 0 0.607843 0 0 0 0 1 0 0 0 0.35 0"/>
<feBlend mode="normal" in2="effect2_innerShadow_72_95" result="effect3_innerShadow_72_95"/>
</filter>
<linearGradient id="paint0_linear_72_95" x1="58.5122" y1="24.9094" x2="25.038" y2="51.0634" gradientUnits="userSpaceOnUse">
<stop stop-color="#009BFF"/>
<stop offset="1" stop-color="#00FFE0"/>
</linearGradient>
<linearGradient id="paint1_linear_72_95" x1="58.359" y1="24.9094" x2="24.9245" y2="50.9052" gradientUnits="userSpaceOnUse">
<stop stop-color="#009BFF"/>
<stop offset="1" stop-color="#00FFE0"/>
</linearGradient>
</defs>
</svg>
